<svg version="1.1" width="300" height="283" viewBox="-1 -1 300 283" xmlns="http://www.w3.org/2000/svg" xmlns:xlink="http://www.w3.org/1999/xlink">
  <path id="ID0.955682032275945" fill="none" stroke="#000000" stroke-width="15" d="M 246.200 146.400 C 254.973 146.400 262.923 149.851 268.680 155.427 C 274.437 161.003 278 168.703 278 177.200 C 278 185.697 274.437 193.397 268.680 198.973 C 262.923 204.549 254.973 208 246.200 208 C 237.427 208 229.477 204.549 223.720 198.973 C 217.963 193.397 214.400 185.697 214.400 177.200 C 214.400 168.703 217.963 161.003 223.720 155.427 C 229.477 149.851 237.427 146.400 246.200 146.400 Z " transform="matrix(2.7859628200531006, 0, 0, 2.7859628200531006, -531.9, -318.35)"/>
  <path id="ID0.9865049789659679" fill="#FF0000" stroke="none" d="M 352.400 210.400 L 352.800 210.400 L 352.800 210.400 L 352.400 210.400 L 352.400 210.400 Z " transform="matrix(2.7859628200531006, 0, 0, 2.7859628200531006, -515.45, -326)"/>
  <path id="ID0.5658653997816145" fill="#000000" stroke="none" d="M 241 188 C 244.035 188 246.785 188.314 248.776 188.821 C 250.767 189.328 252 190.028 252 190.800 C 252 191.572 250.767 192.272 248.776 192.779 C 246.785 193.286 244.035 193.600 241 193.600 C 237.965 193.600 235.215 193.286 233.224 192.779 C 231.233 192.272 230 191.572 230 190.800 C 230 190.028 231.233 189.328 233.224 188.821 C 235.215 188.314 237.965 188 241 188 Z " transform="matrix(2.7859628200531006, 0, 0, 2.7859628200531006, -515.45, -326)"/>
  <path id="ID0.09811770264059305" fill="#000000" stroke="none" d="M 194 163.600 C 195.655 163.600 197.155 165.774 198.242 169.286 C 199.328 172.798 200 177.648 200 183 C 200 188.352 199.328 193.202 198.242 196.714 C 197.155 200.226 195.655 202.400 194 202.400 C 192.345 202.400 190.845 200.226 189.758 196.714 C 188.672 193.202 188 188.352 188 183 C 188 177.648 188.672 172.798 189.758 169.286 C 190.845 165.774 192.345 163.600 194 163.600 Z " transform="matrix(2.7859628200531006, 0, 0, 2.7859628200531006, -513.5, -334.35)"/>
  <path id="ID0.09811770264059305" fill="#000000" stroke="none" d="M 194 163.600 C 195.655 163.600 197.155 165.774 198.242 169.286 C 199.328 172.798 200 177.648 200 183 C 200 188.352 199.328 193.202 198.242 196.714 C 197.155 200.226 195.655 202.400 194 202.400 C 192.345 202.400 190.845 200.226 189.758 196.714 C 188.672 193.202 188 188.352 188 183 C 188 177.648 188.672 172.798 189.758 169.286 C 190.845 165.774 192.345 163.600 194 163.600 Z " transform="matrix(2.7859628200531006, 0, 0, 2.7859628200531006, -259, -331.6)"/>
  <path id="ID0.26759138656780124" fill="none" stroke="#000000" stroke-width="2" stroke-linecap="round" d="M 286.200 165.750 C 286.200 165.750 286.898 162.386 286 161.150 C 285.187 160.043 281.453 160.541 282.200 159.950 C 283.946 158.594 290.855 157.563 291 156.750 C 291.183 156.025 283.234 156.508 283 155.750 C 282.819 154.898 290.092 153.822 290 152.750 C 289.775 151.677 282.635 152.327 282.400 151.150 C 282.190 150.051 288.613 149.015 288.400 148.150 C 288.184 147.290 281.622 149.022 281.200 147.800 C 280.798 146.504 286.541 143.764 286.200 142.950 C 285.547 142.139 279.766 145.566 279 144.200 C 278.115 142.538 282.810 138.636 282.200 136.950 C 281.324 135.961 276.207 139.921 276 138.800 C 275.804 137.104 281.005 133.458 280.400 132.150 C 279.605 130.958 273.870 134.984 273.200 133.800 C 272.475 132.437 277.489 128.002 277 127.150 C 276.074 126.653 270.621 131.394 270 130.750 C 269.396 129.990 274.313 125.271 273.400 124.750 C 272.310 124.176 267.690 128.863 266.200 127.950 C 264.912 127.037 268.278 121.986 267 121.750 C 265.425 121.458 262.369 127.155 261.200 126.800 C 260.166 126.447 263.185 121.086 262 120.750 C 260.086 120.586 256.387 126.585 255 125.800 C 253.661 124.958 256.771 118.547 256 118.150 C 255.187 118.151 252.557 124.814 251 124.800 C 249.758 124.761 251.341 118.959 250.200 118.750 C 249.357 118.562 248.895 123.994 247 124 C 245.065 123.996 244.961 118.893 243 118.950 C 240.962 118.993 240.474 124.145 239 124.200 C 237.793 124.237 238.195 118.914 237.400 119.150 C 236.279 119.681 236.227 125.782 235 125.800 C 233.720 125.774 233.114 119.644 232.200 119.750 C 231.296 120.098 232.671 126.197 231 126.800 C 229.234 127.405 227.328 122.270 225.400 122.750 C 223.533 123.468 225.145 128.765 223.400 129.200 C 221.468 129.639 219.632 124.506 218 125.150 C 216.432 126.006 218.726 131.681 217 132.200 C 215.073 132.754 212.513 126.909 211 127.750 C 209.013 128.709 211.855 134.900 210 135.800 C 208.054 136.725 204.217 130.822 203 131.750 C 201.717 132.997 206.622 139.044 205 140.150 C 203.057 141.437 196.891 136.165 196 137.150 C 195.116 138.130 202.187 142.665 201 143.950 C 199.577 145.486 191.899 141.683 191.200 142.750 C 190.779 143.750 199.214 147.312 198.400 148.750 C 197.485 150.354 188.194 148.090 188.200 148.750 C 188.211 149.424 198.491 151.741 198 152.950 C 197.455 154.195 186.102 154.284 186.200 154.750 C 186.303 155.216 198.137 156.289 198.200 156.950 C 198.260 157.614 186.961 158.352 187.200 158.750 C 187.471 159.164 199.221 159.827 199.200 160.150 C 199.163 160.482 189.174 161.231 188 161.750 C 187.187 162.329 192.522 161.980 194.400 162.800 C 195.010 163.064 194.400 164.800 194.400 164.800 " transform="matrix(2.7859628200531006, 0, 0, 2.7859628200531006, -515.45, -326)"/>
</svg>
